<svg width="453.3" height="87.101" viewBox="0 0 453.3 87.101" xmlns="http://www.w3.org/2000/svg"><g id="svgGroup" stroke-linecap="round" fill-rule="evenodd" font-size="9pt" stroke="#180033" stroke-width="0.25mm" fill="#c4c0c0" style="stroke:#180033;stroke-width:0.25mm;fill:#c4c0c0"><path d="M 283.3 50.2 L 283 50.2 Q 282.528 50.2 281.964 49.953 A 4.532 4.532 0 0 1 281.65 49.8 A 1.228 1.228 0 0 1 281.109 49.199 Q 280.91 48.76 280.9 48.069 A 5.088 5.088 0 0 1 280.9 48 Q 280.9 46.184 281.745 43.892 A 22.479 22.479 0 0 1 282.5 42.1 A 80.707 80.707 0 0 1 285.181 36.916 A 92.826 92.826 0 0 1 286.2 35.15 A 157.64 157.64 0 0 0 288.037 31.965 Q 289.003 30.241 289.8 28.7 A 46.676 46.676 0 0 0 290.249 27.682 Q 290.47 27.164 290.65 26.7 Q 290.938 25.96 290.989 25.491 A 1.763 1.763 0 0 0 291 25.3 A 1.093 1.093 0 0 0 290.978 25.07 Q 290.871 24.578 290.247 24.725 A 1.828 1.828 0 0 0 290.15 24.75 A 2.582 2.582 0 0 0 289.688 24.947 Q 288.831 25.399 287.3 26.7 A 42.216 42.216 0 0 0 285.409 28.383 Q 284.582 29.16 283.693 30.065 A 85.863 85.863 0 0 0 281.85 32 A 147.403 147.403 0 0 0 277.247 37.232 A 167.96 167.96 0 0 0 275.7 39.1 A 148.711 148.711 0 0 0 271.331 44.716 A 129.822 129.822 0 0 0 270 46.55 A 78.185 78.185 0 0 0 268.252 49.103 Q 267.484 50.278 266.867 51.333 A 35.449 35.449 0 0 0 266 52.9 A 2.853 2.853 0 0 1 265.763 53.336 Q 265.422 53.841 264.95 53.95 Q 264.456 54.064 263.529 54.149 A 31.272 31.272 0 0 1 262.9 54.2 Q 261.9 54.2 261.3 54.25 A 2.527 2.527 0 0 0 260.721 54.372 Q 260.375 54.486 260 54.7 A 143.701 143.701 0 0 0 264.809 44.915 A 118.229 118.229 0 0 0 267.15 39.25 A 186.239 186.239 0 0 1 273.241 25.15 A 203.407 203.407 0 0 1 273.7 24.2 A 7.59 7.59 0 0 1 274.651 22.829 A 5.323 5.323 0 0 1 276.5 21.45 A 9.151 9.151 0 0 1 278.252 20.871 A 7.286 7.286 0 0 1 279.8 20.7 A 9.584 9.584 0 0 1 280.953 20.766 Q 281.53 20.836 282.033 20.981 A 5.891 5.891 0 0 1 282.1 21 Q 281.855 21.572 280.976 23.045 A 87.55 87.55 0 0 1 280.55 23.75 Q 279.3 25.8 277.9 28.4 Q 276.909 30.184 274.936 33.884 A 956.825 956.825 0 0 0 274.9 33.95 Q 272.9 37.7 271.2 41.7 Q 272.1 40.4 273.95 38.05 Q 275.8 35.7 278.15 33 Q 280.5 30.3 283 27.9 Q 285.5 25.5 287.9 23.95 A 12.85 12.85 0 0 1 289.351 23.133 Q 290.122 22.767 290.835 22.583 A 5.48 5.48 0 0 1 292.2 22.4 A 5.936 5.936 0 0 1 293.168 22.473 Q 293.667 22.556 294.055 22.733 A 2.186 2.186 0 0 1 294.95 23.45 A 4.034 4.034 0 0 1 295.691 25.598 A 5.023 5.023 0 0 1 295.7 25.9 Q 295.7 27.7 294.35 29.95 Q 293 32.2 291.6 35 A 142.132 142.132 0 0 1 290.951 36.203 Q 290.66 36.736 290.335 37.323 A 267.462 267.462 0 0 1 289.65 38.55 Q 288.5 40.6 287.45 42.55 Q 286.4 44.5 285.8 45.8 Q 286.754 43.987 288.619 41.218 A 103.591 103.591 0 0 1 288.8 40.95 A 68.265 68.265 0 0 1 291.479 37.281 A 84.686 84.686 0 0 1 293.45 34.85 Q 296.1 31.7 298.9 28.85 A 41.037 41.037 0 0 1 301.492 26.42 Q 302.761 25.335 303.997 24.488 A 24.708 24.708 0 0 1 304.35 24.25 Q 307 22.5 309 22.5 A 6.239 6.239 0 0 1 309.961 22.569 Q 310.444 22.644 310.822 22.803 A 2.183 2.183 0 0 1 311.75 23.5 A 3.741 3.741 0 0 1 312.473 25.379 A 4.832 4.832 0 0 1 312.5 25.9 A 7.209 7.209 0 0 1 312.324 27.424 Q 312.162 28.173 311.849 29.007 A 17.017 17.017 0 0 1 311.25 30.4 A 37.798 37.798 0 0 1 309.351 33.856 A 45.731 45.731 0 0 1 308.15 35.7 Q 306.3 38.4 304.55 40.9 Q 303.21 42.814 302.31 44.377 A 27.627 27.627 0 0 0 301.8 45.3 Q 300.4 48.1 300.4 49.6 A 2.892 2.892 0 0 0 300.454 50.184 Q 300.664 51.2 301.7 51.2 Q 302.8 51.2 304.1 50.4 A 16.392 16.392 0 0 0 306.796 48.759 A 21.143 21.143 0 0 0 308.6 47.25 Q 310.8 45.2 312.7 42.9 Q 313.7 41.7 314.85 40.45 A 103.077 103.077 0 0 0 315.363 39.889 Q 315.968 39.222 316.28 38.847 A 9.544 9.544 0 0 0 316.4 38.7 A 0.819 0.819 0 0 1 316.535 38.542 A 0.533 0.533 0 0 1 316.9 38.4 A 0.63 0.63 0 0 1 317.176 38.457 Q 317.5 38.613 317.5 39.2 Q 317.5 39.614 317.157 40.028 A 2.487 2.487 0 0 1 317 40.2 A 120.102 120.102 0 0 1 315.037 42.682 A 131.147 131.147 0 0 1 314.9 42.85 Q 313.8 44.2 312.6 45.5 Q 311.6 46.8 310.45 48.05 Q 309.3 49.3 308 50.4 A 21.743 21.743 0 0 1 305.629 52.334 Q 304.33 53.238 303.091 53.746 A 8.12 8.12 0 0 1 300 54.4 Q 298.623 54.4 297.762 53.863 A 2.675 2.675 0 0 1 297 53.15 A 4.639 4.639 0 0 1 296.238 51.387 A 6.626 6.626 0 0 1 296.1 50 A 12.334 12.334 0 0 1 296.323 47.748 Q 296.526 46.655 296.916 45.445 A 25.778 25.778 0 0 1 297.45 43.95 Q 298.8 40.5 300.7 37.4 A 25.788 25.788 0 0 1 300.807 37.242 Q 301.053 36.879 301.701 35.935 A 1221.152 1221.152 0 0 1 302 35.5 Q 303.027 34.007 304.228 32.077 A 128.185 128.185 0 0 0 304.4 31.8 A 71.963 71.963 0 0 0 305.873 29.315 A 58.274 58.274 0 0 0 306.7 27.8 A 19.676 19.676 0 0 0 307.09 27.022 Q 307.647 25.838 307.695 25.214 A 1.472 1.472 0 0 0 307.7 25.1 A 0.823 0.823 0 0 0 307.679 24.906 Q 307.568 24.447 306.85 24.7 A 3.035 3.035 0 0 0 306.388 24.918 Q 305.531 25.399 304 26.7 A 57.437 57.437 0 0 0 302.116 28.43 Q 300.475 30 298.6 32 A 106.152 106.152 0 0 0 294.451 36.708 A 125.705 125.705 0 0 0 292.55 39.05 Q 289.5 42.9 287.1 47.2 Q 286.6 48.2 285.7 49.2 Q 284.8 50.2 283.3 50.2 Z M 11.673 55.864 A 24.722 24.722 0 0 0 15.2 56.1 Q 17.056 56.1 19.134 55.705 A 30.314 30.314 0 0 0 22.5 54.85 Q 26.5 53.6 30.15 51.2 A 24.487 24.487 0 0 0 30.377 51.049 A 21.591 21.591 0 0 0 36.15 45.4 Q 38.5 42 38.5 37.7 L 38.5 36.8 A 1.633 1.633 0 0 0 38.462 36.45 A 1.926 1.926 0 0 0 38.3 36 A 237.237 237.237 0 0 0 38.331 35.994 Q 40.262 35.623 41.722 35.307 A 83.275 83.275 0 0 0 42.65 35.1 A 20.052 20.052 0 0 1 42.938 35.037 Q 44.516 34.7 45.8 34.7 A 6.932 6.932 0 0 1 45.808 34.7 A 5.967 5.967 0 0 1 47.7 35 Q 47.1 31.2 41.6 31.2 A 1.778 1.778 0 0 0 41.543 31.201 Q 41.081 31.216 39.35 31.45 A 150.969 150.969 0 0 0 38.125 31.621 Q 36.703 31.825 34.95 32.1 Q 32.4 32.5 29.85 32.85 A 246.35 246.35 0 0 1 28.33 33.054 Q 26.738 33.263 25.5 33.4 Q 24.3 33.5 23.2 33.55 Q 22.1 33.6 21.2 33.6 Q 19.9 33.6 19.05 33.55 L 18.2 33.5 Q 18.3 35.1 20 35.9 A 7.729 7.729 0 0 0 20.451 36.091 Q 21.048 36.322 21.755 36.489 A 14.473 14.473 0 0 0 23.2 36.75 Q 25.1 37 27.2 37 Q 29.1 37 31 36.85 A 105.531 105.531 0 0 0 32.168 36.752 A 89.931 89.931 0 0 0 34.6 36.5 Q 34.541 37.628 34.182 38.915 A 17.359 17.359 0 0 1 33.55 40.75 A 17.809 17.809 0 0 1 32.826 42.322 A 14.288 14.288 0 0 1 31.2 44.8 A 34.054 34.054 0 0 1 28.139 48.199 A 25.438 25.438 0 0 1 23.95 51.5 Q 20.1 53.9 15.7 53.9 A 16.113 16.113 0 0 1 13.673 53.78 Q 12.292 53.605 11.205 53.173 A 5.97 5.97 0 0 1 8.25 50.8 A 10.846 10.846 0 0 1 7.656 49.724 Q 6.91 48.172 6.574 46.261 A 19.438 19.438 0 0 1 6.3 42.9 A 24.065 24.065 0 0 1 6.319 41.949 Q 6.475 38.016 7.9 33.25 Q 9.5 27.9 12.35 22.5 Q 15.2 17.1 19.15 12.55 Q 23.1 8 27.85 5.2 Q 32.6 2.4 37.9 2.4 A 8.867 8.867 0 0 1 38.709 2.436 Q 39.501 2.508 40.144 2.73 A 3.852 3.852 0 0 1 41.85 3.85 A 4.971 4.971 0 0 1 42.909 5.933 A 6.912 6.912 0 0 1 43.1 7.6 A 10.55 10.55 0 0 1 42.761 10.207 A 13.893 13.893 0 0 1 41.9 12.6 Q 41 14.8 40.3 17.1 Q 39.6 19.4 39.6 21.1 A 6.787 6.787 0 0 0 39.617 21.584 Q 39.653 22.097 39.771 22.529 A 3.287 3.287 0 0 0 40.2 23.5 Q 40.8 24.4 42.4 24.4 A 17.156 17.156 0 0 1 42.451 24.267 Q 42.678 23.675 43.131 22.61 A 153.7 153.7 0 0 1 43.5 21.75 A 561.191 561.191 0 0 0 43.607 21.502 Q 44.366 19.744 45.3 17.55 A 57.543 57.543 0 0 0 45.839 16.24 A 49.46 49.46 0 0 0 47 13 Q 47.6 11 47.6 9.2 A 8.866 8.866 0 0 0 46.985 5.88 A 9.094 9.094 0 0 0 44.8 2.7 A 8.299 8.299 0 0 0 42.139 1.009 Q 40.836 0.477 39.201 0.226 A 21.118 21.118 0 0 0 36 0 A 23.233 23.233 0 0 0 32.807 0.221 A 25.4 25.4 0 0 0 25.35 2.5 A 36.193 36.193 0 0 0 23.566 3.411 A 39.401 39.401 0 0 0 15.55 9.25 Q 11 13.5 7.5 18.8 Q 4 24.1 2 29.85 A 38.957 38.957 0 0 0 0.861 33.75 A 31.261 31.261 0 0 0 0 40.9 A 22.56 22.56 0 0 0 0.147 43.505 A 18.057 18.057 0 0 0 1.5 48.65 Q 3 52.1 6.35 54.1 A 11.908 11.908 0 0 0 8.289 55.025 Q 9.818 55.596 11.673 55.864 Z M 137.7 24.7 L 138.3 22.5 Q 138.918 21.959 139.537 21.836 A 1.86 1.86 0 0 1 139.9 21.8 A 2.233 2.233 0 0 1 141.449 22.423 A 3.316 3.316 0 0 1 141.8 22.8 Q 142.52 23.7 142.673 23.952 A 0.691 0.691 0 0 1 142.7 24 Q 141.1 29.8 138.7 36.4 Q 136.638 42.072 133.541 48.926 A 260.583 260.583 0 0 1 132.5 51.2 A 66.729 66.729 0 0 0 135.595 49.129 Q 136.977 48.144 138.145 47.186 A 37.419 37.419 0 0 0 138.9 46.55 Q 141.5 44.3 142.7 43 Q 143.7 41.9 144.65 40.8 A 34.086 34.086 0 0 0 146.198 38.875 A 30.876 30.876 0 0 0 146.4 38.6 A 1.997 1.997 0 0 1 146.535 38.476 Q 146.674 38.361 146.788 38.321 A 0.341 0.341 0 0 1 146.9 38.3 Q 147.398 38.3 147.483 38.92 A 2.078 2.078 0 0 1 147.5 39.2 A 1.479 1.479 0 0 1 147.409 39.727 A 1.329 1.329 0 0 1 147.1 40.2 Q 146 41.5 144.95 42.85 Q 143.9 44.2 142.7 45.6 A 28.719 28.719 0 0 1 141.01 47.3 Q 139.444 48.757 137.35 50.35 A 61.833 61.833 0 0 1 133.323 53.18 A 50.337 50.337 0 0 1 130.8 54.7 Q 128.3 60.6 125.55 66.35 A 94.007 94.007 0 0 1 121.976 73.128 A 78.038 78.038 0 0 1 119.7 76.8 A 34.976 34.976 0 0 1 116.556 80.908 A 26.025 26.025 0 0 1 112.9 84.3 A 13.68 13.68 0 0 1 108.131 86.673 A 12.945 12.945 0 0 1 104.8 87.1 Q 102 87.1 100.45 85.6 A 4.848 4.848 0 0 1 99.156 83.361 Q 98.94 82.582 98.906 81.651 A 9.681 9.681 0 0 1 98.9 81.3 A 13.773 13.773 0 0 1 100.922 74.152 A 16.623 16.623 0 0 1 101.2 73.7 Q 103.5 70.1 107.05 67.05 Q 110.6 64 114.4 61.5 Q 118.2 59 121.3 57.2 Q 124.4 55.4 125.7 54.4 Q 128.2 49.9 130.4 45.15 Q 132.6 40.4 134.3 35.7 Q 131.7 40.3 128.65 44.5 A 52.333 52.333 0 0 1 125.981 47.888 Q 124.534 49.57 123.086 50.914 A 30.514 30.514 0 0 1 122.55 51.4 A 14.284 14.284 0 0 1 120.691 52.81 Q 118.636 54.1 116.7 54.1 A 6.665 6.665 0 0 1 115.293 53.963 Q 114.469 53.784 113.869 53.375 A 3.252 3.252 0 0 1 112.8 52.15 Q 111.8 50.2 111.8 47.9 Q 111.8 46.1 112.15 44.4 Q 112.433 43.026 112.683 42.24 A 7.144 7.144 0 0 1 112.8 41.9 A 61.668 61.668 0 0 1 113.789 39.253 Q 114.341 37.867 115.01 36.353 A 100.789 100.789 0 0 1 115.1 36.15 Q 116.5 33 117.95 29.95 A 3342.814 3342.814 0 0 1 118.988 27.768 Q 119.4 26.903 119.778 26.111 A 1921.224 1921.224 0 0 1 120.5 24.6 A 5.536 5.536 0 0 1 121.649 23.014 Q 122.399 22.276 123.5 21.65 Q 125.7 20.4 127.1 20.4 A 3.014 3.014 0 0 1 127.638 20.444 Q 128.565 20.613 128.599 21.437 A 1.545 1.545 0 0 1 128.6 21.5 A 2.074 2.074 0 0 1 128.529 22.006 Q 128.404 22.496 128.063 23.154 A 11.996 11.996 0 0 1 127.7 23.8 Q 126.915 25.175 125.358 28.092 A 484.443 484.443 0 0 0 125.3 28.2 Q 123.7 31.2 121.85 34.8 A 168.398 168.398 0 0 0 119.472 39.609 A 142.566 142.566 0 0 0 118.5 41.7 A 23.421 23.421 0 0 0 117.412 44.485 Q 116.956 45.936 116.792 47.258 A 11.719 11.719 0 0 0 116.7 48.7 Q 116.7 49.627 116.903 50.3 A 3.165 3.165 0 0 0 117.1 50.8 A 1.544 1.544 0 0 0 117.443 51.264 Q 117.752 51.543 118.206 51.59 A 1.851 1.851 0 0 0 118.4 51.6 Q 119.2 51.6 120.5 50.7 Q 121.674 49.887 123.175 48.095 A 30.827 30.827 0 0 0 123.5 47.7 Q 124.4 46.7 126.25 44.3 A 91.479 91.479 0 0 0 127.936 42.038 Q 129.063 40.478 130.3 38.65 A 85.675 85.675 0 0 0 134.249 32.205 A 93.712 93.712 0 0 0 134.5 31.75 A 52.364 52.364 0 0 0 136.593 27.504 A 42.208 42.208 0 0 0 137.7 24.7 Z M 443.5 24.7 L 444.1 22.5 Q 444.718 21.959 445.337 21.836 A 1.86 1.86 0 0 1 445.7 21.8 A 2.233 2.233 0 0 1 447.249 22.423 A 3.316 3.316 0 0 1 447.6 22.8 Q 448.32 23.7 448.473 23.952 A 0.691 0.691 0 0 1 448.5 24 Q 446.9 29.8 444.5 36.4 Q 442.438 42.072 439.341 48.926 A 260.583 260.583 0 0 1 438.3 51.2 A 66.729 66.729 0 0 0 441.395 49.129 Q 442.777 48.144 443.945 47.186 A 37.419 37.419 0 0 0 444.7 46.55 Q 447.3 44.3 448.5 43 Q 449.5 41.9 450.45 40.8 A 34.086 34.086 0 0 0 451.998 38.875 A 30.876 30.876 0 0 0 452.2 38.6 A 1.997 1.997 0 0 1 452.335 38.476 Q 452.474 38.361 452.588 38.321 A 0.341 0.341 0 0 1 452.7 38.3 Q 453.198 38.3 453.283 38.92 A 2.078 2.078 0 0 1 453.3 39.2 A 1.479 1.479 0 0 1 453.209 39.727 A 1.329 1.329 0 0 1 452.9 40.2 Q 451.8 41.5 450.75 42.85 Q 449.7 44.2 448.5 45.6 A 28.719 28.719 0 0 1 446.81 47.3 Q 445.244 48.757 443.15 50.35 A 61.833 61.833 0 0 1 439.123 53.18 A 50.337 50.337 0 0 1 436.6 54.7 Q 434.1 60.6 431.35 66.35 A 94.007 94.007 0 0 1 427.776 73.128 A 78.038 78.038 0 0 1 425.5 76.8 A 34.976 34.976 0 0 1 422.356 80.908 A 26.025 26.025 0 0 1 418.7 84.3 A 13.68 13.68 0 0 1 413.931 86.673 A 12.945 12.945 0 0 1 410.6 87.1 Q 407.8 87.1 406.25 85.6 A 4.848 4.848 0 0 1 404.956 83.361 Q 404.74 82.582 404.706 81.651 A 9.681 9.681 0 0 1 404.7 81.3 A 13.773 13.773 0 0 1 406.722 74.152 A 16.623 16.623 0 0 1 407 73.7 Q 409.3 70.1 412.85 67.05 Q 416.4 64 420.2 61.5 Q 424 59 427.1 57.2 Q 430.2 55.4 431.5 54.4 Q 434 49.9 436.2 45.15 Q 438.4 40.4 440.1 35.7 Q 437.5 40.3 434.45 44.5 A 52.333 52.333 0 0 1 431.781 47.888 Q 430.334 49.57 428.886 50.914 A 30.514 30.514 0 0 1 428.35 51.4 A 14.284 14.284 0 0 1 426.491 52.81 Q 424.436 54.1 422.5 54.1 A 6.665 6.665 0 0 1 421.093 53.963 Q 420.269 53.784 419.669 53.375 A 3.252 3.252 0 0 1 418.6 52.15 Q 417.6 50.2 417.6 47.9 Q 417.6 46.1 417.95 44.4 Q 418.233 43.026 418.483 42.24 A 7.144 7.144 0 0 1 418.6 41.9 A 61.668 61.668 0 0 1 419.589 39.253 Q 420.141 37.867 420.81 36.353 A 100.789 100.789 0 0 1 420.9 36.15 Q 422.3 33 423.75 29.95 A 3342.814 3342.814 0 0 1 424.788 27.768 Q 425.2 26.903 425.578 26.111 A 1921.224 1921.224 0 0 1 426.3 24.6 A 5.536 5.536 0 0 1 427.449 23.014 Q 428.199 22.276 429.3 21.65 Q 431.5 20.4 432.9 20.4 A 3.014 3.014 0 0 1 433.438 20.444 Q 434.365 20.613 434.399 21.437 A 1.545 1.545 0 0 1 434.4 21.5 A 2.074 2.074 0 0 1 434.329 22.006 Q 434.204 22.496 433.863 23.154 A 11.996 11.996 0 0 1 433.5 23.8 Q 432.715 25.175 431.158 28.092 A 484.443 484.443 0 0 0 431.1 28.2 Q 429.5 31.2 427.65 34.8 A 168.398 168.398 0 0 0 425.272 39.609 A 142.566 142.566 0 0 0 424.3 41.7 A 23.421 23.421 0 0 0 423.212 44.485 Q 422.756 45.936 422.592 47.258 A 11.719 11.719 0 0 0 422.5 48.7 Q 422.5 49.627 422.703 50.3 A 3.165 3.165 0 0 0 422.9 50.8 A 1.544 1.544 0 0 0 423.243 51.264 Q 423.552 51.543 424.006 51.59 A 1.851 1.851 0 0 0 424.2 51.6 Q 425 51.6 426.3 50.7 Q 427.474 49.887 428.975 48.095 A 30.827 30.827 0 0 0 429.3 47.7 Q 430.2 46.7 432.05 44.3 A 91.479 91.479 0 0 0 433.736 42.038 Q 434.863 40.478 436.1 38.65 A 85.675 85.675 0 0 0 440.049 32.205 A 93.712 93.712 0 0 0 440.3 31.75 A 52.364 52.364 0 0 0 442.393 27.504 A 42.208 42.208 0 0 0 443.5 24.7 Z M 206.073 55.864 A 24.722 24.722 0 0 0 209.6 56.1 Q 212.9 56.1 216.85 54.75 Q 220.8 53.4 224.45 51 A 24.723 24.723 0 0 0 225.558 50.228 A 21.172 21.172 0 0 0 230.4 45.3 Q 232.7 42 232.7 38.1 A 8.586 8.586 0 0 0 232.699 37.985 Q 232.684 36.823 232.351 36.084 A 2.091 2.091 0 0 0 231.5 35.1 A 41.882 41.882 0 0 1 229.502 39.479 A 33.534 33.534 0 0 1 222.6 48.55 A 23.29 23.29 0 0 1 219.485 50.984 A 16.632 16.632 0 0 1 210.3 53.8 Q 204.8 53.8 202.75 50.75 A 10.355 10.355 0 0 1 202.142 49.72 Q 201.343 48.172 200.987 46.246 A 18.406 18.406 0 0 1 200.7 42.9 A 24.813 24.813 0 0 1 200.718 41.975 Q 200.793 39.945 201.197 37.692 A 43.771 43.771 0 0 1 202.25 33.25 Q 203.8 27.9 206.6 22.5 Q 209.4 17.1 213.25 12.55 Q 217.1 8 221.8 5.25 Q 226.5 2.5 231.8 2.5 A 9.258 9.258 0 0 1 232.654 2.538 Q 233.49 2.616 234.167 2.852 A 3.995 3.995 0 0 1 236 4.1 A 5.607 5.607 0 0 1 237.015 5.999 A 6.752 6.752 0 0 1 237.3 8 A 10.674 10.674 0 0 1 237.192 9.51 A 11.98 11.98 0 0 1 236.3 12.6 Q 235.4 14.8 234.7 17.1 Q 234 19.4 234 21.1 A 6.787 6.787 0 0 0 234.017 21.584 Q 234.053 22.097 234.171 22.529 A 3.287 3.287 0 0 0 234.6 23.5 Q 235.2 24.4 236.8 24.4 A 17.156 17.156 0 0 1 236.851 24.267 Q 237.078 23.675 237.531 22.61 A 153.7 153.7 0 0 1 237.9 21.75 A 561.191 561.191 0 0 0 238.007 21.502 Q 238.766 19.744 239.7 17.55 A 57.543 57.543 0 0 0 240.239 16.24 A 49.46 49.46 0 0 0 241.4 13 Q 242 11 242 9.2 A 8.866 8.866 0 0 0 241.385 5.88 A 9.094 9.094 0 0 0 239.2 2.7 A 8.299 8.299 0 0 0 236.539 1.009 Q 235.236 0.477 233.601 0.226 A 21.118 21.118 0 0 0 230.4 0 A 23.233 23.233 0 0 0 227.207 0.221 A 25.4 25.4 0 0 0 219.75 2.5 A 36.193 36.193 0 0 0 217.966 3.411 A 39.401 39.401 0 0 0 209.95 9.25 Q 205.4 13.5 201.9 18.8 Q 198.4 24.1 196.4 29.85 A 38.957 38.957 0 0 0 195.261 33.75 A 31.261 31.261 0 0 0 194.4 40.9 A 22.56 22.56 0 0 0 194.547 43.505 A 18.057 18.057 0 0 0 195.9 48.65 Q 197.4 52.1 200.75 54.1 A 11.908 11.908 0 0 0 202.689 55.025 Q 204.218 55.596 206.073 55.864 Z M 76 52.9 A 3.769 3.769 0 0 0 77.52 53.994 Q 78.744 54.5 80.6 54.5 A 9.54 9.54 0 0 0 83.773 53.959 A 11.433 11.433 0 0 0 86.7 52.4 A 25.722 25.722 0 0 0 88.847 50.658 A 30.904 30.904 0 0 0 92.15 47.15 A 70.511 70.511 0 0 0 92.818 46.313 A 63.202 63.202 0 0 0 96.7 40.8 A 40.008 40.008 0 0 1 96.599 41.099 A 36.43 36.43 0 0 1 95.85 43.1 A 12.121 12.121 0 0 0 95.795 43.238 A 10.936 10.936 0 0 0 95.2 45.3 A 22.224 22.224 0 0 0 95.022 45.947 Q 94.774 46.904 94.644 47.776 A 12.391 12.391 0 0 0 94.5 49.6 Q 94.5 51.046 94.868 52.041 A 3.461 3.461 0 0 0 95.6 53.25 A 4.319 4.319 0 0 0 95.669 53.321 A 3.583 3.583 0 0 0 98.3 54.4 A 6.538 6.538 0 0 0 98.512 54.397 Q 102.026 54.283 106.2 50.4 Q 107.4 49.3 108.55 48.05 Q 109.7 46.8 110.8 45.5 Q 112 44.2 113.1 42.85 Q 114.2 41.5 115.3 40.2 A 1.636 1.636 0 0 0 115.436 40.047 A 1.191 1.191 0 0 0 115.7 39.3 A 2.078 2.078 0 0 0 115.683 39.02 Q 115.598 38.4 115.1 38.4 A 0.341 0.341 0 0 0 114.988 38.421 Q 114.874 38.461 114.735 38.576 A 1.997 1.997 0 0 0 114.6 38.7 Q 113.8 39.8 112.9 40.8 Q 112 41.8 110.9 42.9 A 51.423 51.423 0 0 1 110.661 43.175 A 55.902 55.902 0 0 1 106.75 47.2 Q 104.5 49.3 102.3 50.4 Q 100.9 51.2 100.2 51.2 A 1.401 1.401 0 0 1 100.077 51.195 Q 99.2 51.118 99.2 49.9 Q 99.2 49.1 99.6 47.9 Q 100 46.7 100.6 45.3 A 66.482 66.482 0 0 1 101.474 43.397 A 79.067 79.067 0 0 1 103.15 40.1 A 354.898 354.898 0 0 1 104.022 38.486 Q 104.441 37.716 104.826 37.018 A 192.277 192.277 0 0 1 105.7 35.45 A 168.573 168.573 0 0 0 105.963 34.983 Q 106.68 33.702 106.783 33.454 A 0.194 0.194 0 0 0 106.8 33.4 Q 107.205 32.59 106.757 32.174 A 1.092 1.092 0 0 0 106.5 32 A 3.177 3.177 0 0 0 106.172 31.859 Q 105.466 31.6 104.5 31.6 Q 103.5 31.6 102.55 31.9 Q 101.971 32.083 101.596 32.34 A 1.822 1.822 0 0 0 101.2 32.7 A 10.148 10.148 0 0 0 101.087 32.845 Q 100.915 33.068 100.734 33.326 A 17.889 17.889 0 0 0 100.35 33.9 Q 99.9 34.6 99.4 35.4 A 137.993 137.993 0 0 0 98.741 36.167 Q 97.962 37.079 96.944 38.297 A 478.262 478.262 0 0 0 95.9 39.55 Q 93.7 42.2 91.15 44.9 A 54.938 54.938 0 0 1 88.792 47.256 A 41.108 41.108 0 0 1 86.2 49.5 Q 82.9 52 81.2 52 A 2.105 2.105 0 0 1 80.869 51.976 Q 79.974 51.833 79.764 50.869 A 3.156 3.156 0 0 1 79.7 50.2 A 6.133 6.133 0 0 1 79.72 49.724 Q 79.745 49.401 79.803 49.032 A 13.529 13.529 0 0 1 79.95 48.25 A 8.63 8.63 0 0 1 80.092 47.692 Q 80.231 47.211 80.438 46.676 A 17.677 17.677 0 0 1 80.9 45.6 A 29.389 29.389 0 0 1 81.468 44.313 Q 82.145 42.868 83.056 41.298 A 56.772 56.772 0 0 1 85.1 38.05 Q 87.9 33.9 91.3 30.3 A 53.385 53.385 0 0 1 93.345 28.297 A 44.301 44.301 0 0 1 97.6 24.8 Q 99.55 23.399 101.24 22.851 A 6.687 6.687 0 0 1 103.3 22.5 A 3.944 3.944 0 0 1 105.285 22.998 Q 106.108 23.466 106.723 24.373 A 7.451 7.451 0 0 1 107.5 25.9 A 3.296 3.296 0 0 0 107.594 26.15 Q 107.999 27.1 108.8 27.1 Q 109.826 27.1 110.042 26.166 A 2.518 2.518 0 0 0 110.1 25.6 A 1.658 1.658 0 0 0 110.068 25.286 Q 110.03 25.088 109.946 24.87 A 3.743 3.743 0 0 0 109.75 24.45 A 2.918 2.918 0 0 0 109.464 24.022 Q 109.107 23.573 108.5 23.1 A 13.741 13.741 0 0 0 107.136 22.095 A 10.763 10.763 0 0 0 104.8 20.95 Q 102.9 20.3 100.9 20.3 A 11.959 11.959 0 0 0 100.187 20.322 Q 98.255 20.437 96.233 21.175 A 19.924 19.924 0 0 0 92.95 22.75 A 32.785 32.785 0 0 0 90.146 24.609 A 38.446 38.446 0 0 0 85.1 29.1 A 57.363 57.363 0 0 0 84.641 29.589 A 52.125 52.125 0 0 0 78.7 37.3 Q 77.944 38.607 77.022 40.622 A 83.973 83.973 0 0 0 76.15 42.6 A 19.633 19.633 0 0 0 75.134 45.599 A 14.203 14.203 0 0 0 74.7 49 A 7.548 7.548 0 0 0 74.739 49.771 A 5.783 5.783 0 0 0 76 52.9 Z M 151.725 55.673 A 10.689 10.689 0 0 0 155.5 56.4 A 8.546 8.546 0 0 0 156.185 56.373 Q 158.295 56.203 160.7 55 A 18.08 18.08 0 0 0 162.081 54.187 A 22.144 22.144 0 0 0 164.1 52.7 Q 165.375 51.65 166.313 50.882 A 700.357 700.357 0 0 1 166.9 50.4 A 27.035 27.035 0 0 0 167.062 50.268 A 28.902 28.902 0 0 0 171.65 45.5 A 169.326 169.326 0 0 1 172.722 44.119 A 150.701 150.701 0 0 1 175.9 40.2 A 2.487 2.487 0 0 0 176.057 40.028 Q 176.193 39.864 176.275 39.7 A 1.109 1.109 0 0 0 176.4 39.2 Q 176.4 38.613 176.076 38.457 A 0.63 0.63 0 0 0 175.8 38.4 A 0.533 0.533 0 0 0 175.435 38.542 A 0.819 0.819 0 0 0 175.3 38.7 Q 174.4 39.8 173.55 40.85 A 24.392 24.392 0 0 1 172.848 41.678 A 30.164 30.164 0 0 1 171.6 43 A 27.697 27.697 0 0 1 171.461 43.148 Q 170.463 44.197 168.97 45.555 A 95.439 95.439 0 0 1 167.4 46.95 Q 164.7 49.3 161.9 51.3 Q 162.2 50.5 162.55 49.7 Q 162.9 48.9 163.1 48.2 A 33.912 33.912 0 0 0 163.494 46.472 Q 163.8 44.958 164.03 43.2 A 70.389 70.389 0 0 0 164.4 39.6 A 138.59 138.59 0 0 0 164.611 36.462 A 118.238 118.238 0 0 0 164.8 29.9 A 72.122 72.122 0 0 1 164.835 27.625 A 60.651 60.651 0 0 1 165.05 24.05 Q 165.3 21.3 166.3 19.35 A 4.62 4.62 0 0 1 168.068 17.458 A 5.977 5.977 0 0 1 169.7 16.8 Q 170.423 16.584 170.623 16.367 A 0.248 0.248 0 0 0 170.7 16.2 A 0.457 0.457 0 0 0 170.647 15.988 Q 170.55 15.799 170.273 15.636 A 2.413 2.413 0 0 0 170 15.5 A 2.455 2.455 0 0 0 169.749 15.393 Q 168.953 15.1 167.5 15.1 A 8.986 8.986 0 0 0 165.62 15.307 A 11.838 11.838 0 0 0 163.7 15.9 Q 161.7 16.7 160.3 18.45 Q 159.381 19.599 159.065 21.286 A 10.413 10.413 0 0 0 158.9 23.2 Q 158 24.4 156.05 26.75 Q 155.014 27.999 153.837 29.431 A 1077.87 1077.87 0 0 0 151.65 32.1 Q 149.2 35.1 146.8 38.05 Q 144.4 41 142.4 43.4 Q 142.088 43.838 141.97 44.432 A 3.971 3.971 0 0 0 141.9 45.2 A 2.02 2.02 0 0 0 141.904 45.327 Q 141.934 45.8 142.2 45.8 A 0.449 0.449 0 0 0 142.377 45.761 Q 142.541 45.69 142.73 45.495 A 2.754 2.754 0 0 0 142.9 45.3 Q 146.6 40.9 150.75 35.85 Q 154.9 30.8 159.6 25.1 A 100.582 100.582 0 0 0 159.553 26.029 Q 159.477 27.685 159.4 30.25 Q 159.3 33.6 158.95 37.6 Q 158.6 41.6 157.85 45.2 A 30.528 30.528 0 0 1 157.521 46.616 Q 157.185 47.915 156.766 49.017 A 15.28 15.28 0 0 1 155.8 51.1 A 7.547 7.547 0 0 1 155.63 51.387 Q 154.371 53.4 152.5 53.4 Q 150.3 53.4 149.3 51.95 Q 148.769 51.18 148.266 50.254 A 26.135 26.135 0 0 1 147.4 48.5 A 12.339 12.339 0 0 0 147.324 48.339 Q 147.057 47.782 146.761 47.311 A 7.39 7.39 0 0 0 146.05 46.35 A 5.364 5.364 0 0 0 145.728 46.014 Q 145.189 45.5 144.8 45.5 A 1.452 1.452 0 0 0 144.741 45.502 Q 143.909 45.536 143.742 46.536 A 3.445 3.445 0 0 0 143.7 47.1 Q 143.7 48.5 144.4 49.7 A 13.177 13.177 0 0 0 145.492 51.345 A 9.976 9.976 0 0 0 147.5 53.3 A 21.856 21.856 0 0 0 148.843 54.219 Q 150.309 55.141 151.725 55.673 Z M 62.2 22.6 L 59.4 27.1 Q 57 30.4 54.4 33.9 Q 51.8 37.4 49.4 40.35 Q 47 43.3 45.3 45.3 Q 45.099 45.501 44.899 45.567 A 0.629 0.629 0 0 1 44.7 45.6 Q 44.2 45.6 43.9 45.1 Q 43.6 44.6 44 44.2 Q 47.9 39.8 51.5 35.2 Q 55.1 30.6 58.2 25.4 L 60.6 21.3 Q 60.229 21.022 59.472 20.143 A 29.073 29.073 0 0 1 59.35 20 A 16.119 16.119 0 0 1 58.18 18.434 A 18.918 18.918 0 0 1 57.75 17.75 A 7.368 7.368 0 0 1 57.363 17.021 Q 57.003 16.233 57 15.611 A 2.181 2.181 0 0 1 57 15.6 Q 57 14.8 57.55 14.35 Q 58.017 13.968 59.096 13.911 A 7.569 7.569 0 0 1 59.5 13.9 A 2.595 2.595 0 0 1 61.898 15.465 Q 62.803 17.183 62.803 20.789 A 30.023 30.023 0 0 1 62.8 21.2 Q 64.2 22.3 65.9 22.9 Q 67.6 23.5 69.15 24.05 Q 70.7 24.6 71.7 25.6 Q 72.7 26.6 72.7 28.6 A 7.499 7.499 0 0 1 72.543 30.072 Q 72.314 31.214 71.75 32.55 A 19.521 19.521 0 0 1 70.499 35.028 A 16.028 16.028 0 0 1 69.5 36.5 A 116.573 116.573 0 0 0 68.626 37.71 Q 68.241 38.249 67.822 38.846 A 216.093 216.093 0 0 0 66.95 40.1 Q 65.5 42.2 64.2 44.3 A 26.894 26.894 0 0 0 63.323 45.819 Q 62.675 47.038 62.3 48.1 A 14.257 14.257 0 0 0 62.081 48.707 Q 61.8 49.55 61.8 50 Q 61.8 51.3 63 51.3 Q 64.1 51.3 65.7 50.4 A 17.321 17.321 0 0 0 67.702 49.16 Q 68.675 48.468 69.678 47.584 A 29.886 29.886 0 0 0 70.05 47.25 Q 72.3 45.2 74.2 43 Q 75.3 41.9 76.2 40.85 Q 77.1 39.8 77.9 38.7 A 1.997 1.997 0 0 1 78.035 38.576 Q 78.174 38.461 78.288 38.421 A 0.341 0.341 0 0 1 78.4 38.4 Q 78.898 38.4 78.983 39.02 A 2.078 2.078 0 0 1 79 39.3 A 1.191 1.191 0 0 1 78.736 40.047 A 1.636 1.636 0 0 1 78.6 40.2 Q 76.5 42.7 74.3 45.45 A 39.237 39.237 0 0 1 69.756 50.262 A 36.354 36.354 0 0 1 69.6 50.4 Q 68.569 51.225 67.112 52.192 A 61.5 61.5 0 0 1 65.7 53.1 A 10.966 10.966 0 0 1 63.767 54.072 Q 62.366 54.6 61 54.6 A 4.571 4.571 0 0 1 59.151 54.234 A 4.385 4.385 0 0 1 57.8 53.3 A 4.215 4.215 0 0 1 56.731 51.43 Q 56.543 50.766 56.508 49.973 A 8.395 8.395 0 0 1 56.5 49.6 Q 56.5 48.5 56.7 47.55 A 10.821 10.821 0 0 1 56.894 46.767 Q 57.01 46.368 57.148 46.025 A 6.297 6.297 0 0 1 57.2 45.9 Q 57.7 44.4 59.1 42 A 130.903 130.903 0 0 1 60.967 38.903 A 157.712 157.712 0 0 1 62.2 36.95 A 136.74 136.74 0 0 0 63.592 34.737 Q 64.217 33.72 64.753 32.802 A 77.245 77.245 0 0 0 65.1 32.2 A 15.294 15.294 0 0 0 65.891 30.644 Q 66.6 29.007 66.6 27.7 Q 66.6 25.762 65.066 24.59 A 5.085 5.085 0 0 0 64.8 24.4 Q 64.1 23.9 63.4 23.45 A 17.889 17.889 0 0 1 62.826 23.066 Q 62.567 22.886 62.345 22.714 A 10.148 10.148 0 0 1 62.2 22.6 Z M 404.6 22.6 L 401.8 27.1 Q 399.4 30.4 396.8 33.9 Q 394.2 37.4 391.8 40.35 Q 389.4 43.3 387.7 45.3 Q 387.499 45.501 387.299 45.567 A 0.629 0.629 0 0 1 387.1 45.6 Q 386.6 45.6 386.3 45.1 Q 386 44.6 386.4 44.2 Q 390.3 39.8 393.9 35.2 Q 397.5 30.6 400.6 25.4 L 403 21.3 Q 402.629 21.022 401.872 20.143 A 29.073 29.073 0 0 1 401.75 20 A 16.119 16.119 0 0 1 400.58 18.434 A 18.918 18.918 0 0 1 400.15 17.75 A 7.368 7.368 0 0 1 399.763 17.021 Q 399.403 16.233 399.4 15.611 A 2.181 2.181 0 0 1 399.4 15.6 Q 399.4 14.8 399.95 14.35 Q 400.417 13.968 401.496 13.911 A 7.569 7.569 0 0 1 401.9 13.9 A 2.595 2.595 0 0 1 404.298 15.465 Q 405.203 17.183 405.203 20.789 A 30.023 30.023 0 0 1 405.2 21.2 Q 406.6 22.3 408.3 22.9 Q 410 23.5 411.55 24.05 Q 413.1 24.6 414.1 25.6 Q 415.1 26.6 415.1 28.6 A 7.499 7.499 0 0 1 414.943 30.072 Q 414.714 31.214 414.15 32.55 A 19.521 19.521 0 0 1 412.899 35.028 A 16.028 16.028 0 0 1 411.9 36.5 A 116.573 116.573 0 0 0 411.026 37.71 Q 410.641 38.249 410.222 38.846 A 216.093 216.093 0 0 0 409.35 40.1 Q 407.9 42.2 406.6 44.3 A 26.894 26.894 0 0 0 405.723 45.819 Q 405.075 47.038 404.7 48.1 A 14.257 14.257 0 0 0 404.481 48.707 Q 404.2 49.55 404.2 50 Q 404.2 51.3 405.4 51.3 Q 406.5 51.3 408.1 50.4 A 17.321 17.321 0 0 0 410.102 49.16 Q 411.075 48.468 412.078 47.584 A 29.886 29.886 0 0 0 412.45 47.25 Q 414.7 45.2 416.6 43 Q 417.7 41.9 418.6 40.85 Q 419.5 39.8 420.3 38.7 A 1.997 1.997 0 0 1 420.435 38.576 Q 420.574 38.461 420.688 38.421 A 0.341 0.341 0 0 1 420.8 38.4 Q 421.298 38.4 421.383 39.02 A 2.078 2.078 0 0 1 421.4 39.3 A 1.191 1.191 0 0 1 421.136 40.047 A 1.636 1.636 0 0 1 421 40.2 Q 418.9 42.7 416.7 45.45 A 39.237 39.237 0 0 1 412.156 50.262 A 36.354 36.354 0 0 1 412 50.4 Q 410.969 51.225 409.512 52.192 A 61.5 61.5 0 0 1 408.1 53.1 A 10.966 10.966 0 0 1 406.167 54.072 Q 404.766 54.6 403.4 54.6 A 4.571 4.571 0 0 1 401.551 54.234 A 4.385 4.385 0 0 1 400.2 53.3 A 4.215 4.215 0 0 1 399.131 51.43 Q 398.943 50.766 398.908 49.973 A 8.395 8.395 0 0 1 398.9 49.6 Q 398.9 48.5 399.1 47.55 A 10.821 10.821 0 0 1 399.294 46.767 Q 399.41 46.368 399.548 46.025 A 6.297 6.297 0 0 1 399.6 45.9 Q 400.1 44.4 401.5 42 A 130.903 130.903 0 0 1 403.367 38.903 A 157.712 157.712 0 0 1 404.6 36.95 A 136.74 136.74 0 0 0 405.992 34.737 Q 406.617 33.72 407.153 32.802 A 77.245 77.245 0 0 0 407.5 32.2 A 15.294 15.294 0 0 0 408.291 30.644 Q 409 29.007 409 27.7 Q 409 25.762 407.466 24.59 A 5.085 5.085 0 0 0 407.2 24.4 Q 406.5 23.9 405.8 23.45 A 17.889 17.889 0 0 1 405.226 23.066 Q 404.967 22.886 404.745 22.714 A 10.148 10.148 0 0 1 404.6 22.6 Z M 351.1 22.6 L 347.3 22.6 A 3.012 3.012 0 0 1 346.926 22.579 Q 346.54 22.531 346.359 22.37 A 0.471 0.471 0 0 1 346.2 22 Q 346.2 21.757 346.563 21.48 A 2.698 2.698 0 0 1 346.75 21.35 A 1.944 1.944 0 0 1 347.248 21.13 Q 347.691 21 348.3 21 L 351.9 21 Q 353.202 18.78 354.122 17.292 A 79.313 79.313 0 0 1 354.65 16.45 A 58.068 58.068 0 0 1 355.272 15.492 Q 355.919 14.519 356.4 13.9 A 33.589 33.589 0 0 1 357.981 12.028 Q 359.602 10.255 361.027 9.329 A 9.349 9.349 0 0 1 361.15 9.25 A 15.434 15.434 0 0 1 362.44 8.519 Q 363.099 8.189 363.697 7.987 A 6.147 6.147 0 0 1 364.9 7.7 Q 366.106 7.55 366.801 7.512 A 7.589 7.589 0 0 1 367.2 7.5 Q 366.238 8.532 365.133 9.988 A 54.146 54.146 0 0 0 364.1 11.4 Q 362.4 13.8 360.8 16.35 A 84.169 84.169 0 0 0 359.41 18.642 Q 358.684 19.885 358.1 21 L 368.3 21 Q 368.928 21 369.198 21.164 A 0.377 0.377 0 0 1 369.4 21.5 A 0.587 0.587 0 0 1 369.289 21.835 Q 369.142 22.051 368.8 22.25 A 2.305 2.305 0 0 1 368.223 22.483 Q 367.945 22.556 367.615 22.584 A 5.014 5.014 0 0 1 367.2 22.6 L 357.1 22.6 A 2500.649 2500.649 0 0 1 355.767 25.013 Q 355.157 26.117 354.609 27.105 A 1447.01 1447.01 0 0 1 354.25 27.75 Q 353 30 351.75 32.5 Q 350.504 34.993 348.711 38.679 A 1253.792 1253.792 0 0 0 348.7 38.7 A 61.174 61.174 0 0 0 347.773 40.856 Q 347.061 42.608 346.65 44 Q 346.2 45.524 346.062 46.711 A 8.569 8.569 0 0 0 346 47.7 A 7.135 7.135 0 0 0 346.056 48.632 Q 346.213 49.813 346.8 50.4 A 2.699 2.699 0 0 0 348.723 51.2 A 3.543 3.543 0 0 0 348.8 51.2 Q 350 51.2 351.6 50.4 Q 353.796 49.302 355.992 47.208 A 27.679 27.679 0 0 0 356 47.2 Q 358.2 45.1 360.2 42.9 Q 361.2 41.8 362.1 40.8 Q 363 39.8 363.8 38.7 A 1.997 1.997 0 0 1 363.935 38.576 Q 364.074 38.461 364.188 38.421 A 0.341 0.341 0 0 1 364.3 38.4 A 0.63 0.63 0 0 1 364.576 38.457 Q 364.9 38.613 364.9 39.2 A 1.479 1.479 0 0 1 364.809 39.727 A 1.329 1.329 0 0 1 364.5 40.2 A 262.086 262.086 0 0 1 360.387 45.163 A 286.429 286.429 0 0 1 360.1 45.5 Q 357.4 48.6 354.1 51.5 Q 350.8 54.4 346.2 54.4 A 6.167 6.167 0 0 1 344.35 54.133 A 5.139 5.139 0 0 1 342.5 53.1 A 3.823 3.823 0 0 1 341.462 51.586 Q 341 50.42 341 48.7 Q 341 47.9 341.1 47.1 A 17.025 17.025 0 0 1 341.264 46.061 A 20.806 20.806 0 0 1 341.4 45.4 A 32.682 32.682 0 0 1 342.195 42.299 Q 342.647 40.817 343.273 39.154 A 76.238 76.238 0 0 1 344.7 35.65 Q 346.848 30.709 350.031 24.623 A 257.788 257.788 0 0 1 351.1 22.6 Z M 243.661 55.304 A 10.306 10.306 0 0 0 246.2 55.6 Q 250.9 55.6 254.75 53.3 Q 257.036 51.935 258.74 50.569 A 21.132 21.132 0 0 0 260.8 48.7 Q 262.7 46.7 264.5 44.55 Q 266.3 42.4 268.1 40.2 A 1.636 1.636 0 0 0 268.236 40.047 A 1.191 1.191 0 0 0 268.5 39.3 A 2.078 2.078 0 0 0 268.483 39.02 Q 268.398 38.4 267.9 38.4 A 0.341 0.341 0 0 0 267.788 38.421 Q 267.674 38.461 267.535 38.576 A 1.997 1.997 0 0 0 267.4 38.7 Q 266.6 39.8 265.7 40.85 Q 264.8 41.9 263.8 43 L 261.45 45.35 Q 260.4 46.4 259.3 47.4 Q 258.2 48.3 256 49.8 Q 253.8 51.3 251.3 52.45 Q 248.8 53.6 246.6 53.6 A 4.35 4.35 0 0 1 246.257 53.587 A 3.315 3.315 0 0 1 244.25 52.75 A 2.476 2.476 0 0 1 243.62 51.833 Q 243.3 51.06 243.3 49.9 Q 243.3 49.4 243.35 48.95 A 9.937 9.937 0 0 1 243.395 48.606 A 11.884 11.884 0 0 1 243.5 48 Q 243.7 46.9 244 45.65 A 38.747 38.747 0 0 1 244.019 45.572 A 42.137 42.137 0 0 1 244.7 43.1 A 43.953 43.953 0 0 0 248.443 42.084 A 36.17 36.17 0 0 0 255.75 38.85 Q 260.6 36 264.6 30.9 A 15.067 15.067 0 0 0 264.748 30.709 Q 265.221 30.086 265.575 29.483 A 8.765 8.765 0 0 0 266.2 28.2 A 9.834 9.834 0 0 0 266.372 27.718 Q 266.529 27.235 266.611 26.797 A 4.884 4.884 0 0 0 266.7 25.9 A 6.323 6.323 0 0 0 266.699 25.786 Q 266.655 23.366 264.75 21.9 Q 262.8 20.4 260.1 20.4 A 8.566 8.566 0 0 0 258.515 20.553 Q 257.328 20.777 256.057 21.326 A 17.586 17.586 0 0 0 253.75 22.55 A 29.107 29.107 0 0 0 250.665 24.776 A 37.107 37.107 0 0 0 247.05 28.2 Q 243.8 31.7 241.5 35.9 A 14.811 14.811 0 0 0 241.488 35.921 Q 240.738 37.222 239.964 39.175 A 49.072 49.072 0 0 0 239.25 41.1 A 22.31 22.31 0 0 0 238.549 43.533 A 17.56 17.56 0 0 0 238.1 47.4 A 13.557 13.557 0 0 0 238.102 47.627 Q 238.164 51.363 240.3 53.45 A 7.27 7.27 0 0 0 243.661 55.304 Z M 319.861 55.304 A 10.306 10.306 0 0 0 322.4 55.6 Q 327.1 55.6 330.95 53.3 Q 333.236 51.935 334.94 50.569 A 21.132 21.132 0 0 0 337 48.7 Q 338.9 46.7 340.7 44.55 Q 342.5 42.4 344.3 40.2 A 1.636 1.636 0 0 0 344.436 40.047 A 1.191 1.191 0 0 0 344.7 39.3 A 2.078 2.078 0 0 0 344.683 39.02 Q 344.598 38.4 344.1 38.4 A 0.341 0.341 0 0 0 343.988 38.421 Q 343.874 38.461 343.735 38.576 A 1.997 1.997 0 0 0 343.6 38.7 Q 342.8 39.8 341.9 40.85 Q 341 41.9 340 43 L 337.65 45.35 Q 336.6 46.4 335.5 47.4 Q 334.4 48.3 332.2 49.8 Q 330 51.3 327.5 52.45 Q 325 53.6 322.8 53.6 A 4.35 4.35 0 0 1 322.457 53.587 A 3.315 3.315 0 0 1 320.45 52.75 A 2.476 2.476 0 0 1 319.82 51.833 Q 319.5 51.06 319.5 49.9 Q 319.5 49.4 319.55 48.95 A 9.937 9.937 0 0 1 319.595 48.606 A 11.884 11.884 0 0 1 319.7 48 Q 319.9 46.9 320.2 45.65 A 38.747 38.747 0 0 1 320.219 45.572 A 42.137 42.137 0 0 1 320.9 43.1 A 43.953 43.953 0 0 0 324.643 42.084 A 36.17 36.17 0 0 0 331.95 38.85 Q 336.8 36 340.8 30.9 A 15.067 15.067 0 0 0 340.948 30.709 Q 341.421 30.086 341.775 29.483 A 8.765 8.765 0 0 0 342.4 28.2 A 9.834 9.834 0 0 0 342.572 27.718 Q 342.729 27.235 342.811 26.797 A 4.884 4.884 0 0 0 342.9 25.9 A 6.323 6.323 0 0 0 342.899 25.786 Q 342.855 23.366 340.95 21.9 Q 339 20.4 336.3 20.4 A 8.566 8.566 0 0 0 334.715 20.553 Q 333.528 20.777 332.257 21.326 A 17.586 17.586 0 0 0 329.95 22.55 A 29.107 29.107 0 0 0 326.865 24.776 A 37.107 37.107 0 0 0 323.25 28.2 Q 320 31.7 317.7 35.9 A 14.811 14.811 0 0 0 317.688 35.921 Q 316.938 37.222 316.164 39.175 A 49.072 49.072 0 0 0 315.45 41.1 A 22.31 22.31 0 0 0 314.749 43.533 A 17.56 17.56 0 0 0 314.3 47.4 A 13.557 13.557 0 0 0 314.302 47.627 Q 314.364 51.363 316.5 53.45 A 7.27 7.27 0 0 0 319.861 55.304 Z M 367.561 55.304 A 10.306 10.306 0 0 0 370.1 55.6 Q 374.8 55.6 378.65 53.3 Q 380.936 51.935 382.64 50.569 A 21.132 21.132 0 0 0 384.7 48.7 Q 386.6 46.7 388.4 44.55 Q 390.2 42.4 392 40.2 A 1.636 1.636 0 0 0 392.136 40.047 A 1.191 1.191 0 0 0 392.4 39.3 A 2.078 2.078 0 0 0 392.383 39.02 Q 392.298 38.4 391.8 38.4 A 0.341 0.341 0 0 0 391.688 38.421 Q 391.574 38.461 391.435 38.576 A 1.997 1.997 0 0 0 391.3 38.7 Q 390.5 39.8 389.6 40.85 Q 388.7 41.9 387.7 43 L 385.35 45.35 Q 384.3 46.4 383.2 47.4 Q 382.1 48.3 379.9 49.8 Q 377.7 51.3 375.2 52.45 Q 372.7 53.6 370.5 53.6 A 4.35 4.35 0 0 1 370.157 53.587 A 3.315 3.315 0 0 1 368.15 52.75 A 2.476 2.476 0 0 1 367.52 51.833 Q 367.2 51.06 367.2 49.9 Q 367.2 49.4 367.25 48.95 A 9.937 9.937 0 0 1 367.295 48.606 A 11.884 11.884 0 0 1 367.4 48 Q 367.6 46.9 367.9 45.65 A 38.747 38.747 0 0 1 367.919 45.572 A 42.137 42.137 0 0 1 368.6 43.1 A 43.953 43.953 0 0 0 372.343 42.084 A 36.17 36.17 0 0 0 379.65 38.85 Q 384.5 36 388.5 30.9 A 15.067 15.067 0 0 0 388.648 30.709 Q 389.121 30.086 389.475 29.483 A 8.765 8.765 0 0 0 390.1 28.2 A 9.834 9.834 0 0 0 390.272 27.718 Q 390.429 27.235 390.511 26.797 A 4.884 4.884 0 0 0 390.6 25.9 A 6.323 6.323 0 0 0 390.599 25.786 Q 390.555 23.366 388.65 21.9 Q 386.7 20.4 384 20.4 A 8.566 8.566 0 0 0 382.415 20.553 Q 381.228 20.777 379.957 21.326 A 17.586 17.586 0 0 0 377.65 22.55 A 29.107 29.107 0 0 0 374.565 24.776 A 37.107 37.107 0 0 0 370.95 28.2 Q 367.7 31.7 365.4 35.9 A 14.811 14.811 0 0 0 365.388 35.921 Q 364.638 37.222 363.864 39.175 A 49.072 49.072 0 0 0 363.15 41.1 A 22.31 22.31 0 0 0 362.449 43.533 A 17.56 17.56 0 0 0 362 47.4 A 13.557 13.557 0 0 0 362.002 47.627 Q 362.064 51.363 364.2 53.45 A 7.27 7.27 0 0 0 367.561 55.304 Z M 104.4 85 Q 107 85 109.55 82.9 Q 112.06 80.833 114.328 77.555 A 35.992 35.992 0 0 0 114.4 77.45 A 71.038 71.038 0 0 0 118.575 70.537 A 77.368 77.368 0 0 0 118.7 70.3 A 128.429 128.429 0 0 0 121.024 65.668 A 108.015 108.015 0 0 0 122.25 63 Q 123.723 59.675 124.699 57.432 A 506.074 506.074 0 0 0 124.8 57.2 Q 123.1 58.3 120.2 60.35 Q 117.3 62.4 114 65 Q 110.7 67.6 107.75 70.5 Q 104.8 73.4 102.95 76.25 Q 101.615 78.307 101.244 80.129 A 6.854 6.854 0 0 0 101.1 81.5 A 4.286 4.286 0 0 0 101.525 83.34 A 5.388 5.388 0 0 0 101.8 83.85 A 2.212 2.212 0 0 0 103.01 84.795 Q 103.413 84.936 103.917 84.98 A 5.536 5.536 0 0 0 104.4 85 Z M 410.2 85 Q 412.8 85 415.35 82.9 Q 417.86 80.833 420.128 77.555 A 35.992 35.992 0 0 0 420.2 77.45 A 71.038 71.038 0 0 0 424.375 70.537 A 77.368 77.368 0 0 0 424.5 70.3 A 128.429 128.429 0 0 0 426.824 65.668 A 108.015 108.015 0 0 0 428.05 63 Q 429.523 59.675 430.499 57.432 A 506.074 506.074 0 0 0 430.6 57.2 Q 428.9 58.3 426 60.35 Q 423.1 62.4 419.8 65 Q 416.5 67.6 413.55 70.5 Q 410.6 73.4 408.75 76.25 Q 407.415 78.307 407.044 80.129 A 6.854 6.854 0 0 0 406.9 81.5 A 4.286 4.286 0 0 0 407.325 83.34 A 5.388 5.388 0 0 0 407.6 83.85 A 2.212 2.212 0 0 0 408.81 84.795 Q 409.213 84.936 409.717 84.98 A 5.536 5.536 0 0 0 410.2 85 Z M 249.748 39.548 A 70.691 70.691 0 0 0 251.35 38.6 A 43.086 43.086 0 0 0 256.824 34.627 A 49.111 49.111 0 0 0 258.05 33.55 Q 261.3 30.6 263.4 27.2 Q 264.1 26.1 264.1 25.2 A 1.743 1.743 0 0 0 264.009 24.613 Q 263.734 23.843 262.625 23.803 A 3.444 3.444 0 0 0 262.5 23.8 Q 261.4 23.8 259.8 24.6 Q 254.8 27.3 251.2 31.9 Q 247.6 36.5 245.3 41.8 Q 247.278 40.964 249.748 39.548 Z M 325.948 39.548 A 70.691 70.691 0 0 0 327.55 38.6 A 43.086 43.086 0 0 0 333.024 34.627 A 49.111 49.111 0 0 0 334.25 33.55 Q 337.5 30.6 339.6 27.2 Q 340.3 26.1 340.3 25.2 A 1.743 1.743 0 0 0 340.209 24.613 Q 339.934 23.843 338.825 23.803 A 3.444 3.444 0 0 0 338.7 23.8 Q 337.6 23.8 336 24.6 Q 331 27.3 327.4 31.9 Q 323.8 36.5 321.5 41.8 Q 323.478 40.964 325.948 39.548 Z M 373.648 39.548 A 70.691 70.691 0 0 0 375.25 38.6 A 43.086 43.086 0 0 0 380.724 34.627 A 49.111 49.111 0 0 0 381.95 33.55 Q 385.2 30.6 387.3 27.2 Q 388 26.1 388 25.2 A 1.743 1.743 0 0 0 387.909 24.613 Q 387.634 23.843 386.525 23.803 A 3.444 3.444 0 0 0 386.4 23.8 Q 385.3 23.8 383.7 24.6 Q 378.7 27.3 375.1 31.9 Q 371.5 36.5 369.2 41.8 Q 371.178 40.964 373.648 39.548 Z" vector-effect="non-scaling-stroke"/></g></svg>